<svg width="18" height="18" viewBox="0 0 18 18" fill="none" xmlns="http://www.w3.org/2000/svg">
<path d="M0.809999 10.12L3.64 7.28997L6.17 6.78997C9.39 2.40997 15.55 0.219971 17.78 0.219971C17.78 2.44997 15.59 8.60997 11.21 11.83L10.71 14.36L7.88 17.19L7.17 13.66C5.76 13.66 5.76 13.66 5.05 12.95C4.34 12.24 4.34 12.24 4.34 10.83L0.809999 10.12ZM3.64 12.95L5.05 14.36L2.39 17.03H0.97V15.61L3.64 12.95ZM2.22 11.54L3.46 11.71L1 14.16V12.74L2.22 11.54ZM6.29 14.54L6.46 15.78L5.26 17H3.84L6.29 14.54ZM11 5.49997C10.6022 5.49997 10.2206 5.65801 9.93934 5.93931C9.65803 6.22061 9.5 6.60215 9.5 6.99997C9.5 7.3978 9.65803 7.77933 9.93934 8.06063C10.2206 8.34194 10.6022 8.49997 11 8.49997C11.3978 8.49997 11.7794 8.34194 12.0607 8.06063C12.342 7.77933 12.5 7.3978 12.5 6.99997C12.5 6.60215 12.342 6.22061 12.0607 5.93931C11.7794 5.65801 11.3978 5.49997 11 5.49997Z" fill="white"/>
</svg>
