<svg width="20" height="20" viewBox="0 0 20 20" fill="none" xmlns="http://www.w3.org/2000/svg">
<path d="M3.5 5C3.10218 5 2.72064 4.84196 2.43934 4.56066C2.15804 4.27936 2 3.89782 2 3.5C2 3.10218 2.15804 2.72064 2.43934 2.43934C2.72064 2.15804 3.10218 2 3.5 2C3.89782 2 4.27936 2.15804 4.56066 2.43934C4.84196 2.72064 5 3.10218 5 3.5C5 3.89782 4.84196 4.27936 4.56066 4.56066C4.27936 4.84196 3.89782 5 3.5 5ZM19.41 9.58L10.41 0.58C10.05 0.22 9.55 0 9 0H2C0.89 0 0 0.89 0 2V9C0 9.55 0.22 10.05 0.59 10.41L9.58 19.41C9.95 19.77 10.45 20 11 20C11.55 20 12.05 19.77 12.41 19.41L19.41 12.41C19.78 12.05 20 11.55 20 11C20 10.44 19.77 9.94 19.41 9.58Z" fill="white"/>
</svg>
