<svg width="20" height="20" viewBox="0 0 20 20" fill="none" xmlns="http://www.w3.org/2000/svg">
<path d="M9 0V2.07C5.38 2.53 2.53 5.38 2.07 9H0V11H2.07C2.53 14.62 5.38 17.47 9 17.93V20H11V17.93C14.62 17.47 17.47 14.62 17.93 11H20V9H17.93C17.47 5.38 14.62 2.53 11 2.07V0H9ZM9 4.08V6H11V4.09C13.5 4.5 15.5 6.5 15.92 9H14V11H15.91C15.5 13.5 13.5 15.5 11 15.92V14H9V15.91C6.5 15.5 4.5 13.5 4.08 11H6V9H4.09C4.5 6.5 6.5 4.5 9 4.08ZM10 9C9.73478 9 9.48043 9.10536 9.29289 9.29289C9.10536 9.48043 9 9.73478 9 10C9 10.2652 9.10536 10.5196 9.29289 10.7071C9.48043 10.8946 9.73478 11 10 11C10.2652 11 10.5196 10.8946 10.7071 10.7071C10.8946 10.5196 11 10.2652 11 10C11 9.73478 10.8946 9.48043 10.7071 9.29289C10.5196 9.10536 10.2652 9 10 9Z" fill="white"/>
</svg>
