<svg width="48" height="24" viewBox="0 0 48 24" fill="none" xmlns="http://www.w3.org/2000/svg">
<g clip-path="url(#clip0)">
<path fill-rule="evenodd" clip-rule="evenodd" d="M11.4783 3H36.5217C41.0799 3 45 6.90236 45 12C45 17.0976 41.0799 21 36.5217 21H11.4783C6.92013 21 3 17.0976 3 12C3 6.90236 6.92013 3 11.4783 3ZM36.5217 0H11.4783C5.13899 0 0 5.37258 0 12C0 18.6274 5.13899 24 11.4783 24H36.5217C42.861 24 48 18.6274 48 12C48 5.37258 42.861 0 36.5217 0ZM13 19C16.866 19 20 15.866 20 12C20 8.13401 16.866 5 13 5C9.13401 5 6 8.13401 6 12C6 15.866 9.13401 19 13 19Z" fill="white"/>
</g>
<defs>
<clipPath id="clip0">
<rect width="48" height="24" fill="white"/>
</clipPath>
</defs>
</svg>
