<svg width="600" height="600" viewBox="0 0 600 600" fill="none" xmlns="http://www.w3.org/2000/svg">
<path fill-rule="evenodd" clip-rule="evenodd" d="M170 430C98.203 430 40 371.797 40 300C40 228.203 98.203 170 170 170H430C501.797 170 560 228.203 560 300C560 371.797 501.797 430 430 430H170Z" fill="#868E96"/>
<path d="M278.333 300C278.333 359.831 229.831 408.334 170 408.334C110.169 408.334 61.6665 359.831 61.6665 300C61.6665 240.169 110.169 191.667 170 191.667C229.831 191.667 278.333 240.169 278.333 300Z" fill="white"/>
<path d="M363.873 296.001C363.873 303.548 362.569 310.177 359.959 315.89C357.349 321.568 353.611 325.941 348.745 329.009C343.914 332.042 338.342 333.558 332.029 333.558C325.787 333.558 320.216 332.042 315.314 329.009C310.447 325.941 306.674 321.586 303.994 315.943C301.349 310.301 300.009 303.794 299.974 296.424V292.087C299.974 284.575 301.296 277.945 303.941 272.197C306.621 266.449 310.377 262.059 315.208 259.026C320.075 255.958 325.646 254.424 331.924 254.424C338.201 254.424 343.755 255.94 348.586 258.973C353.453 261.97 357.208 266.308 359.853 271.986C362.498 277.628 363.838 284.205 363.873 291.716V296.001ZM350.49 291.981C350.49 283.447 348.868 276.905 345.624 272.356C342.415 267.807 337.848 265.532 331.924 265.532C326.14 265.532 321.609 267.807 318.329 272.356C315.085 276.87 313.427 283.27 313.357 291.558V296.001C313.357 304.465 314.996 311.006 318.276 315.626C321.591 320.245 326.175 322.555 332.029 322.555C337.954 322.555 342.503 320.298 345.677 315.785C348.886 311.271 350.49 304.676 350.49 296.001V291.981Z" fill="white"/>
<path d="M423.751 299.862H392.753V332.5H379.37V255.482H428.3V266.273H392.753V289.177H423.751V299.862Z" fill="white"/>
<path d="M485.48 299.862H454.482V332.5H441.099V255.482H490.029V266.273H454.482V289.177H485.48V299.862Z" fill="white"/>
</svg>
