<?xml version="1.0" encoding="utf-8"?>
<!-- Generator: Adobe Illustrator 23.0.1, SVG Export Plug-In . SVG Version: 6.00 Build 0)  -->
<svg version="1.1" id="Layer_1" xmlns="http://www.w3.org/2000/svg" xmlns:xlink="http://www.w3.org/1999/xlink" x="0px" y="0px"
	 viewBox="0 0 500 500" style="enable-background:new 0 0 500 500;" xml:space="preserve">
<style type="text/css">
	.st0{opacity:0.47;fill:#82B1E8;stroke:#82B1E8;stroke-width:1.2;stroke-miterlimit:10;enable-background:new    ;}
	.st1{fill:none;stroke:#82B1E8;stroke-width:10;stroke-linecap:round;stroke-linejoin:round;}
	.st2{fill:#82B1E8;}
	.st3{font-family:'NunitoSans-Bold';}
	.st4{font-size:70.09px;}
</style>
<title>Toggle_v5</title>
<path class="st0" d="M364.3,336.4c-42.7,0-77.2-34.6-77.2-77.3s34.6-77.2,77.3-77.2c42.6,0,77.1,34.5,77.2,77.1
	C441.7,301.7,407.1,336.3,364.3,336.4C364.4,336.4,364.4,336.4,364.3,336.4z"/>
<path class="st1" d="M362.8,143l-226,0.4c-58.8,0.1-107,48.4-106.9,107l0,0C30,309,78.4,357.1,137.2,357l226-0.4
	c58.8-0.1,107-48.4,106.9-107l0,0C470,191,421.6,142.9,362.8,143z M354.9,327c-42.7,0-77.2-34.6-77.2-77.3s34.6-77.2,77.3-77.2
	c42.6,0,77.1,34.5,77.2,77.1c0.1,42.7-34.5,77.3-77.2,77.4H354.9z"/>
<text transform="matrix(1 0 0 1 80.52 278.09)" class="st2 st3 st4">ON</text>
</svg>
