<svg width="48" height="24" viewBox="0 0 48 24" fill="none" xmlns="http://www.w3.org/2000/svg">
<path d="M0 12C0 5.37258 5.37258 0 12 0H36C42.6274 0 48 5.37258 48 12C48 18.6274 42.6274 24 36 24H12C5.37258 24 0 18.6274 0 12Z" fill="#F1F3F5"/>
<path d="M12 2H36V-2H12V2ZM36 22H12V26H36V22ZM12 22C6.47715 22 2 17.5228 2 12H-2C-2 19.732 4.26801 26 12 26V22ZM46 12C46 17.5228 41.5228 22 36 22V26C43.732 26 50 19.732 50 12H46ZM36 2C41.5228 2 46 6.47715 46 12H50C50 4.26801 43.732 -2 36 -2V2ZM12 -2C4.26801 -2 -2 4.26801 -2 12H2C2 6.47715 6.47715 2 12 2V-2Z" fill="#F1F3F5"/>
<path d="M23.1523 12.2832C23.1523 13.2585 22.9837 14.1152 22.6465 14.8535C22.3092 15.5872 21.8262 16.1523 21.1973 16.5488C20.5729 16.9408 19.8529 17.1367 19.0371 17.1367C18.2305 17.1367 17.5104 16.9408 16.877 16.5488C16.248 16.1523 15.7604 15.5895 15.4141 14.8604C15.0723 14.1312 14.8991 13.2904 14.8945 12.3379V11.7773C14.8945 10.8066 15.0654 9.94987 15.4072 9.20703C15.7536 8.46419 16.2389 7.89681 16.8633 7.50488C17.4922 7.1084 18.2122 6.91016 19.0234 6.91016C19.8346 6.91016 20.5524 7.10612 21.1768 7.49805C21.8057 7.88542 22.291 8.44596 22.6328 9.17969C22.9746 9.90885 23.1478 10.7588 23.1523 11.7295V12.2832ZM21.4229 11.7637C21.4229 10.6608 21.2132 9.81543 20.7939 9.22754C20.3792 8.63965 19.7891 8.3457 19.0234 8.3457C18.276 8.3457 17.6904 8.63965 17.2666 9.22754C16.8473 9.81087 16.6331 10.638 16.624 11.709V12.2832C16.624 13.377 16.8359 14.2223 17.2598 14.8193C17.6882 15.4163 18.2806 15.7148 19.0371 15.7148C19.8027 15.7148 20.3906 15.4232 20.8008 14.8398C21.2155 14.2565 21.4229 13.4043 21.4229 12.2832V11.7637Z" fill="#212529"/>
<path d="M32.7705 17H31.041L26.6045 9.93848V17H24.875V7.04688H26.6045L31.0547 14.1357V7.04688H32.7705V17Z" fill="#212529"/>
</svg>
