<svg width="13" height="13" viewBox="0 0 13 13" fill="none" xmlns="http://www.w3.org/2000/svg">
<g clip-path="url(#clip0)">
<path d="M3.52083 8.39583C4.56787 8.39583 5.41667 7.54704 5.41667 6.5C5.41667 5.45296 4.56787 4.60417 3.52083 4.60417C2.47379 4.60417 1.625 5.45296 1.625 6.5C1.625 7.54704 2.47379 8.39583 3.52083 8.39583Z" fill="#C5C5C5"/>
<path fill-rule="evenodd" clip-rule="evenodd" d="M9.8913 3.25H3.1087C1.39181 3.25 0 4.70507 0 6.5C0 8.29493 1.39181 9.75 3.1087 9.75H9.8913C11.6082 9.75 13 8.29493 13 6.5C13 4.70507 11.6082 3.25 9.8913 3.25ZM3.1087 4.0625H9.8913C11.1258 4.0625 12.1875 5.11939 12.1875 6.5C12.1875 7.88061 11.1258 8.9375 9.8913 8.9375H3.1087C1.8742 8.9375 0.8125 7.88061 0.8125 6.5C0.8125 5.11939 1.8742 4.0625 3.1087 4.0625Z" fill="#C5C5C5"/>
</g>
<defs>
<clipPath id="clip0">
<rect width="13" height="13" fill="#C5C5C5"/>
</clipPath>
</defs>
</svg>
