<svg width="18" height="18" viewBox="0 0 18 18" fill="none" xmlns="http://www.w3.org/2000/svg">
<path d="M0 2C0 1.46957 0.210714 0.960859 0.585786 0.585786C0.960859 0.210714 1.46957 0 2 0H16C16.5304 0 17.0391 0.210714 17.4142 0.585786C17.7893 0.960859 18 1.46957 18 2V16C18 16.5304 17.7893 17.0391 17.4142 17.4142C17.0391 17.7893 16.5304 18 16 18H2C0.89 18 0 17.1 0 16V2ZM4 15H6L6.35 13H10.35L10 15H12L12.35 13H14.35L14.71 11H12.71L13.41 7H15.41L15.76 5H13.76L14.12 3H12.12L11.76 5H7.76L8.12 3H6.12L5.76 5H3.76L3.41 7H5.41L4.71 11H2.71L2.35 13H4.35L4 15ZM7.41 7H11.41L10.71 11H6.71L7.41 7Z" fill="white"/>
</svg>
