<svg width="24" height="24" viewBox="0 0 24 24" fill="none" xmlns="http://www.w3.org/2000/svg">
<path d="M3 6C2.44772 6 2 6.44772 2 7V17C2 17.5523 2.44772 18 3 18H21C21.5523 18 22 17.5523 22 17V7C22 6.44772 21.5523 6 21 6H3ZM21 16.75C21 16.8881 20.8881 17 20.75 17H3.25C3.11193 17 3 16.8881 3 16.75V7.25C3 7.11193 3.11193 7 3.25 7H20.75C20.8881 7 21 7.11193 21 7.25V16.75Z" fill="#C5C5C5"/>
<rect x="10" y="7" width="1" height="10" fill="#C5C5C5"/>
<path d="M15.2858 8.72868C15.6779 8.32863 16.3221 8.32863 16.7142 8.72868L17.9799 10.0201L19.2713 11.2858C19.6714 11.6779 19.6714 12.3221 19.2713 12.7142L17.9799 13.9799L16.7142 15.2713C16.3221 15.6714 15.6779 15.6714 15.2858 15.2713L14.0201 13.9799L12.7287 12.7142C12.3286 12.3221 12.3286 11.6779 12.7287 11.2858L14.0201 10.0201L15.2858 8.72868Z" fill="#C5C5C5"/>
</svg>
