<svg width="20" height="19" viewBox="0 0 20 19" fill="none" xmlns="http://www.w3.org/2000/svg">
<path d="M6.46 12.06L5.05 13.47L3.68 12.1C2.82 13.21 2.24 14.54 2.06 16H4V18H0V17C0 12.16 3.44 8.13 8 7.2V5.2L0 2V0H20V2L12 5.2V7.2C16.56 8.13 20 12.16 20 17V18H16V16H17.94C17.76 14.54 17.18 13.21 16.32 12.1L14.95 13.47L13.54 12.06L14.91 10.68C13.8 9.82 12.46 9.24 11 9.06V11H9V9.06C7.54 9.24 6.2 9.82 5.09 10.68L6.46 12.06ZM10 15C10.5304 15 11.0391 15.2107 11.4142 15.5858C11.7893 15.9609 12 16.4696 12 17C12 17.5304 11.7893 18.0391 11.4142 18.4142C11.0391 18.7893 10.5304 19 10 19C9.68 19 9.38 18.93 9.12 18.79L5.27 17L9.12 15.21C9.38 15.07 9.68 15 10 15Z" fill="#C5C5C5"/>
</svg>
