<svg width="600" height="600" viewBox="0 0 600 600" fill="none" xmlns="http://www.w3.org/2000/svg">
<path fill-rule="evenodd" clip-rule="evenodd" d="M170 430C98.203 430 40 371.797 40 300C40 228.203 98.203 170 170 170H430C501.797 170 560 228.203 560 300C560 371.797 501.797 430 430 430H170Z" fill="#0CA678"/>
<circle cx="430" cy="300" r="108.333"/>
<path d="M174.296 296.001C174.296 303.548 172.991 310.177 170.381 315.89C167.772 321.568 164.034 325.941 159.167 329.009C154.336 332.042 148.764 333.558 142.452 333.558C136.21 333.558 130.638 332.042 125.736 329.009C120.87 325.941 117.096 321.586 114.416 315.943C111.771 310.301 110.431 303.794 110.396 296.424V292.087C110.396 284.575 111.718 277.945 114.363 272.197C117.043 266.449 120.799 262.059 125.63 259.026C130.497 255.958 136.069 254.424 142.346 254.424C148.623 254.424 154.177 255.94 159.008 258.973C163.875 261.97 167.631 266.308 170.276 271.986C172.92 277.628 174.26 284.205 174.296 291.716V296.001ZM160.913 291.981C160.913 283.447 159.291 276.905 156.046 272.356C152.837 267.807 148.27 265.532 142.346 265.532C136.562 265.532 132.031 267.807 128.751 272.356C125.507 276.87 123.85 283.27 123.779 291.558V296.001C123.779 304.465 125.419 311.006 128.698 315.626C132.013 320.245 136.598 322.555 142.452 322.555C148.376 322.555 152.925 320.298 156.099 315.785C159.308 311.271 160.913 304.676 160.913 296.001V291.981Z" fill="white"/>
<path d="M250.889 332.5H237.506L203.175 277.857V332.5H189.792V255.482H203.175L237.611 310.336V255.482H250.889V332.5Z" fill="white"/>
</svg>
