<svg width="24" height="24" viewBox="0 0 24 24" fill="none" xmlns="http://www.w3.org/2000/svg">
<path fill-rule="evenodd" clip-rule="evenodd" d="M2 7C2 6.44772 2.44772 6 3 6H21C21.5523 6 22 6.44771 22 7V17C22 17.5523 21.5523 18 21 18H3C2.44772 18 2 17.5523 2 17V7ZM20.75 17C20.8881 17 21 16.8881 21 16.75V7.25C21 7.11193 20.8881 7 20.75 7H11V17H20.75Z" fill="black"/>
<path d="M15.2858 8.72868C15.6779 8.32863 16.3221 8.32863 16.7142 8.72868L17.9799 10.0201L19.2713 11.2858C19.6714 11.6779 19.6714 12.3221 19.2713 12.7142L17.9799 13.9799L16.7142 15.2713C16.3221 15.6714 15.6779 15.6714 15.2858 15.2713L14.0201 13.9799L12.7287 12.7142C12.3286 12.3221 12.3286 11.6779 12.7287 11.2858L14.0201 10.0201L15.2858 8.72868Z" fill="black"/>
</svg>
